<svg width="51" height="51" viewBox="0 0 51 51" fill="none" xmlns="http://www.w3.org/2000/svg">
<path d="M25.5 0C14.9382 0 6.375 8.56322 6.375 19.125C6.375 23.2839 7.73845 27.1001 10.0048 30.2255C10.0454 30.3004 10.0518 30.384 10.098 30.4558L22.848 49.5808C23.4393 50.4677 24.4354 51 25.5 51C26.5646 51 27.5607 50.4677 28.152 49.5808L40.902 30.4558C40.949 30.384 40.9546 30.3004 40.9952 30.2255C43.2615 27.1001 44.625 23.2839 44.625 19.125C44.625 8.56322 36.0618 0 25.5 0ZM25.5 25.5C21.9794 25.5 19.125 22.6456 19.125 19.125C19.125 15.6044 21.9794 12.75 25.5 12.75C29.0206 12.75 31.875 15.6044 31.875 19.125C31.875 22.6456 29.0206 25.5 25.5 25.5Z" fill="#31393C"/>
</svg>
